<svg xmlns="http://www.w3.org/2000/svg" xmlns:xlink="http://www.w3.org/1999/xlink" width="1366" zoomAndPan="magnify" viewBox="0 0 1024.5 149.249994" height="768" preserveAspectRatio="xMidYMid meet" version="1.0"><defs><clipPath id="aacaf1817d"><path d="M 2.3125 0 L 1021.691406 0 L 1021.691406 148.503906 L 2.3125 148.503906 Z M 2.3125 0 " clip-rule="nonzero"/></clipPath><clipPath id="3a9a8b735b"><path d="M 346.304688 0 L 494.808594 0 L 494.808594 148.503906 L 346.304688 148.503906 Z M 346.304688 0 " clip-rule="nonzero"/></clipPath><clipPath id="69b4b5130e"><path d="M 420.558594 0 C 379.550781 0 346.304688 33.242188 346.304688 74.25 C 346.304688 115.261719 379.550781 148.503906 420.558594 148.503906 C 461.566406 148.503906 494.808594 115.261719 494.808594 74.25 C 494.808594 33.242188 461.566406 0 420.558594 0 Z M 420.558594 0 " clip-rule="nonzero"/></clipPath><clipPath id="8000cd1448"><path d="M 163.71875 0 L 312.222656 0 L 312.222656 148.503906 L 163.71875 148.503906 Z M 163.71875 0 " clip-rule="nonzero"/></clipPath><clipPath id="c545a309c4"><path d="M 237.972656 0 C 196.964844 0 163.71875 33.242188 163.71875 74.25 C 163.71875 115.261719 196.964844 148.503906 237.972656 148.503906 C 278.980469 148.503906 312.222656 115.261719 312.222656 74.25 C 312.222656 33.242188 278.980469 0 237.972656 0 Z M 237.972656 0 " clip-rule="nonzero"/></clipPath><clipPath id="81537bc8cd"><path d="M 529.191406 0 L 677.695312 0 L 677.695312 148.503906 L 529.191406 148.503906 Z M 529.191406 0 " clip-rule="nonzero"/></clipPath><clipPath id="6abf0e105e"><path d="M 603.445312 0 C 562.4375 0 529.191406 33.242188 529.191406 74.25 C 529.191406 115.261719 562.4375 148.503906 603.445312 148.503906 C 644.453125 148.503906 677.695312 115.261719 677.695312 74.25 C 677.695312 33.242188 644.453125 0 603.445312 0 Z M 603.445312 0 " clip-rule="nonzero"/></clipPath><clipPath id="699369148f"><path d="M 711.777344 0 L 860.28125 0 L 860.28125 148.503906 L 711.777344 148.503906 Z M 711.777344 0 " clip-rule="nonzero"/></clipPath><clipPath id="0ca0d9c850"><path d="M 786.03125 0 C 745.023438 0 711.777344 33.242188 711.777344 74.25 C 711.777344 115.261719 745.023438 148.503906 786.03125 148.503906 C 827.039062 148.503906 860.28125 115.261719 860.28125 74.25 C 860.28125 33.242188 827.039062 0 786.03125 0 Z M 786.03125 0 " clip-rule="nonzero"/></clipPath></defs><g clip-path="url(#aacaf1817d)"><path fill="#ffffff" d="M 2.3125 0 L 1021.691406 0 L 1021.691406 148.503906 L 2.3125 148.503906 Z M 2.3125 0 " fill-opacity="1" fill-rule="nonzero"/><path fill="#f7f6f6" d="M 2.3125 0 L 1021.691406 0 L 1021.691406 148.503906 L 2.3125 148.503906 Z M 2.3125 0 " fill-opacity="1" fill-rule="nonzero"/></g><g clip-path="url(#3a9a8b735b)"><g clip-path="url(#69b4b5130e)"><path fill="#6a8af8" d="M 346.304688 0 L 494.808594 0 L 494.808594 148.503906 L 346.304688 148.503906 Z M 346.304688 0 " fill-opacity="1" fill-rule="nonzero"/></g></g><g clip-path="url(#8000cd1448)"><g clip-path="url(#c545a309c4)"><path fill="#263034" d="M 163.71875 0 L 312.222656 0 L 312.222656 148.503906 L 163.71875 148.503906 Z M 163.71875 0 " fill-opacity="1" fill-rule="nonzero"/></g></g><g clip-path="url(#81537bc8cd)"><g clip-path="url(#6abf0e105e)"><path fill="#f87f4c" d="M 529.191406 0 L 677.695312 0 L 677.695312 148.503906 L 529.191406 148.503906 Z M 529.191406 0 " fill-opacity="1" fill-rule="nonzero"/></g></g><g clip-path="url(#699369148f)"><g clip-path="url(#0ca0d9c850)"><path fill="#ff81ba" d="M 711.777344 0 L 860.28125 0 L 860.28125 148.503906 L 711.777344 148.503906 Z M 711.777344 0 " fill-opacity="1" fill-rule="nonzero"/></g></g></svg>