<svg xmlns="http://www.w3.org/2000/svg" xmlns:xlink="http://www.w3.org/1999/xlink" width="500" zoomAndPan="magnify" viewBox="0 0 375 374.999991" height="500" preserveAspectRatio="xMidYMid meet" version="1.0"><defs><g/><clipPath id="102ed5c1d2"><path d="M 98.710938 95.210938 L 271.035156 95.210938 L 271.035156 267.535156 L 98.710938 267.535156 Z M 98.710938 95.210938 " clip-rule="nonzero"/></clipPath><clipPath id="8d444f96b3"><path d="M 184.871094 95.210938 C 137.285156 95.210938 98.710938 133.785156 98.710938 181.371094 C 98.710938 228.957031 137.285156 267.535156 184.871094 267.535156 C 232.457031 267.535156 271.035156 228.957031 271.035156 181.371094 C 271.035156 133.785156 232.457031 95.210938 184.871094 95.210938 Z M 184.871094 95.210938 " clip-rule="nonzero"/></clipPath></defs><g clip-path="url(#102ed5c1d2)"><g clip-path="url(#8d444f96b3)"><path fill="#f87f4c" d="M 98.710938 95.210938 L 271.035156 95.210938 L 271.035156 267.535156 L 98.710938 267.535156 Z M 98.710938 95.210938 " fill-opacity="1" fill-rule="nonzero"/></g></g><g fill="#ffffff" fill-opacity="1"><g transform="translate(4.922056, 202.730451)"><g><path d="M 5.1875 -47.503906 C 9.902344 -31.53125 11.789062 -22.335938 14.734375 -5.953125 C 15.148438 -3.652344 14.734375 -1.238281 13.4375 0 L 39.546875 0 C 38.25 -1.238281 37.839844 -3.652344 38.25 -5.953125 C 39.605469 -13.554688 40.726562 -19.625 42.082031 -25.519531 C 43.378906 -19.625 44.5 -13.554688 45.855469 -5.953125 C 46.265625 -3.652344 45.855469 -1.238281 44.558594 0 L 70.667969 0 C 69.371094 -1.238281 68.957031 -3.652344 69.371094 -5.953125 C 72.316406 -22.335938 74.144531 -31.53125 78.917969 -47.503906 C 80.390625 -52.394531 81.6875 -56.933594 84.105469 -58.9375 L 64.183594 -58.9375 C 60.707031 -58.9375 59.882812 -55.460938 59.882812 -52.691406 C 59.882812 -42.375 68.664062 -32.535156 68.664062 -20.6875 C 68.664062 -15.972656 67.660156 -11.550781 64.597656 -11.550781 C 59.054688 -11.550781 53.339844 -47.152344 53.339844 -52.515625 C 53.339844 -54.929688 54.105469 -57.40625 55.460938 -58.9375 L 31.121094 -58.9375 C 33.535156 -56.933594 34.832031 -52.394531 36.304688 -47.503906 C 37.011719 -45.207031 37.601562 -43.023438 38.191406 -40.902344 C 39.605469 -33.183594 39.605469 -11.550781 33.476562 -11.550781 C 27.9375 -11.550781 22.21875 -47.152344 22.21875 -52.515625 C 22.21875 -54.929688 22.984375 -57.40625 24.339844 -58.9375 L 0 -58.9375 C 2.417969 -56.933594 3.714844 -52.394531 5.1875 -47.503906 Z M 5.1875 -47.503906 "/></g></g></g><g fill="#ffffff" fill-opacity="1"><g transform="translate(89.025177, 202.730451)"><g><path d="M 1.472656 -29.46875 C 1.472656 -9.136719 12.140625 0.882812 25.34375 0.882812 C 37.898438 0.882812 44.96875 -10.433594 44.96875 -18.449219 C 44.96875 -21.160156 44.203125 -21.628906 43.496094 -21.628906 C 40.609375 -21.628906 40.3125 -12.90625 30 -12.90625 C 21.808594 -12.90625 13.734375 -20.511719 10.195312 -31.355469 C 9.84375 -32.535156 9.546875 -34.65625 11.433594 -34.65625 C 16.324219 -34.65625 20.332031 -23.988281 29.054688 -23.988281 C 36.304688 -23.988281 39.136719 -29.941406 39.136719 -33.890625 C 39.136719 -35.777344 38.605469 -37.25 37.660156 -37.25 C 36.660156 -37.25 36.070312 -34.949219 33.359375 -34.949219 C 28.761719 -34.949219 23.574219 -39.785156 17.742188 -39.785156 C 12.496094 -39.785156 11.140625 -36.71875 9.371094 -36.71875 C 7.78125 -36.71875 8.25 -42.316406 8.25 -43.4375 C 8.25 -45.617188 9.136719 -50.570312 13.085938 -50.570312 C 20.746094 -50.570312 24.578125 -43.496094 35.066406 -43.496094 C 39.3125 -43.496094 42.140625 -48.507812 43.320312 -51.277344 C 44.96875 -55.105469 45.796875 -59.824219 43.496094 -59.824219 C 41.667969 -59.824219 40.492188 -57.464844 36.425781 -57.464844 C 31.058594 -57.464844 27.464844 -59.824219 22.867188 -59.824219 C 8.371094 -59.824219 1.472656 -44.085938 1.472656 -29.46875 Z M 1.472656 -29.46875 "/></g></g></g><g fill="#ffffff" fill-opacity="1"><g transform="translate(135.172858, 202.730451)"><g><path d="M 32.003906 0 C 36.71875 0 42.613281 0.53125 42.613281 -4.832031 C 42.613281 -13.792969 29.292969 -13.671875 29.292969 -18.917969 C 29.292969 -25.226562 42.199219 -22.691406 42.199219 -29.46875 C 42.199219 -32.945312 32.535156 -35.953125 28.761719 -35.953125 C 24.28125 -35.953125 20.6875 -31.828125 20.6875 -27.40625 C 20.6875 -17.269531 30.648438 -16.324219 30.648438 -8.488281 C 30.648438 -4.773438 26.640625 -2.945312 22.925781 -2.945312 C 12.847656 -2.945312 7.722656 -15.324219 7.722656 -21.75 C 7.722656 -35.421875 24.8125 -45.027344 24.8125 -53.691406 C 24.8125 -56.050781 23.457031 -58.9375 18.683594 -58.9375 L 0.589844 -58.9375 C 2.179688 -57.347656 2.652344 -55.34375 2.652344 -51.984375 L 2.652344 -6.953125 C 2.652344 -3.59375 2.179688 -1.589844 0.589844 0 Z M 32.003906 0 "/></g></g></g><g fill="#ffffff" fill-opacity="1"><g transform="translate(178.373691, 202.730451)"><g><path d="M 32.003906 0 C 36.71875 0 42.613281 0.53125 42.613281 -4.832031 C 42.613281 -13.792969 29.292969 -13.671875 29.292969 -18.917969 C 29.292969 -25.226562 42.199219 -22.691406 42.199219 -29.46875 C 42.199219 -32.945312 32.535156 -35.953125 28.761719 -35.953125 C 24.28125 -35.953125 20.6875 -31.828125 20.6875 -27.40625 C 20.6875 -17.269531 30.648438 -16.324219 30.648438 -8.488281 C 30.648438 -4.773438 26.640625 -2.945312 22.925781 -2.945312 C 12.847656 -2.945312 7.722656 -15.324219 7.722656 -21.75 C 7.722656 -35.421875 24.8125 -45.027344 24.8125 -53.691406 C 24.8125 -56.050781 23.457031 -58.9375 18.683594 -58.9375 L 0.589844 -58.9375 C 2.179688 -57.347656 2.652344 -55.34375 2.652344 -51.984375 L 2.652344 -6.953125 C 2.652344 -3.59375 2.179688 -1.589844 0.589844 0 Z M 32.003906 0 "/></g></g></g><g fill="#ffffff" fill-opacity="1"><g transform="translate(221.574523, 202.730451)"><g><path d="M 0.589844 -58.9375 C 2.59375 -57.347656 3.066406 -55.34375 3.066406 -51.984375 L 3.066406 -6.953125 C 3.066406 -3.59375 2.59375 -1.589844 1 0 L 17.800781 0 C 20.6875 0 21.984375 -3.59375 21.984375 -5.953125 C 21.984375 -17.328125 6.304688 -17.445312 6.304688 -33.183594 C 6.304688 -34.300781 7.074219 -34.65625 7.601562 -34.65625 C 12.496094 -34.65625 16.503906 -23.988281 25.226562 -23.988281 C 32.476562 -23.988281 35.304688 -29.941406 35.304688 -33.890625 C 35.304688 -35.777344 34.773438 -37.25 33.832031 -37.25 C 32.828125 -37.25 32.238281 -34.949219 29.527344 -34.949219 C 24.929688 -34.949219 19.746094 -39.785156 13.910156 -39.785156 C 9.726562 -39.785156 8.488281 -37.601562 7.074219 -37.601562 C 6.425781 -37.601562 6.304688 -38.132812 6.304688 -38.546875 L 6.304688 -42.199219 C 6.304688 -44.4375 7.898438 -47.03125 10.726562 -47.03125 L 31.121094 -47.03125 C 38.015625 -47.03125 38.546875 -42.496094 40.429688 -42.496094 C 41.550781 -42.496094 41.789062 -43.378906 41.789062 -44.851562 L 41.789062 -58.9375 Z M 0.589844 -58.9375 "/></g></g></g><g fill="#ffffff" fill-opacity="1"><g transform="translate(264.539608, 202.730451)"><g><path d="M 0.589844 0 L 20.332031 0 C 18.742188 -1.589844 18.269531 -3.59375 18.269531 -6.953125 L 18.269531 -51.984375 C 18.269531 -55.34375 18.742188 -57.347656 20.332031 -58.9375 L 0.589844 -58.9375 C 2.179688 -57.347656 2.652344 -55.34375 2.652344 -51.984375 L 2.652344 -6.953125 C 2.652344 -3.59375 2.179688 -1.589844 0.589844 0 Z M 0.589844 0 "/></g></g></g><g fill="#ffffff" fill-opacity="1"><g transform="translate(285.462235, 202.730451)"><g><path d="M 2.476562 -36.011719 C 5.421875 -36.011719 10.667969 -55.992188 14.441406 -55.992188 C 16.148438 -55.992188 16.265625 -54.046875 16.265625 -52.21875 L 16.265625 -6.953125 C 16.265625 -3.59375 15.796875 -1.589844 14.203125 0 L 33.949219 0 C 32.355469 -1.589844 31.886719 -3.59375 31.886719 -6.953125 L 31.886719 -52.21875 C 31.886719 -54.046875 32.003906 -55.992188 33.710938 -55.992188 C 37.484375 -55.992188 42.730469 -36.011719 45.675781 -36.011719 C 46.503906 -36.011719 46.972656 -36.660156 46.972656 -37.425781 L 46.972656 -58.9375 L 1.179688 -58.9375 L 1.179688 -37.425781 C 1.179688 -36.660156 1.648438 -36.011719 2.476562 -36.011719 Z M 2.476562 -36.011719 "/></g></g></g><g fill="#ffffff" fill-opacity="1"><g transform="translate(306.162098, 130.956858)"><g><path d="M -0.453125 -11.109375 L -3.78125 -7.6875 L -1.8125 -5.765625 L 1.203125 -8.875 L 2.21875 -7.875 L -0.796875 -4.765625 L 2 -2.046875 L 0.875 -0.890625 L -5.953125 -7.53125 L -1.484375 -12.125 Z M -0.453125 -11.109375 "/></g></g></g><g fill="#ffffff" fill-opacity="1"><g transform="translate(312.95593, 124.589639)"><g><path d="M 2.453125 -1.484375 L 1.0625 -0.640625 L -3.859375 -8.796875 L -2.46875 -9.640625 Z M 2.453125 -1.484375 "/></g></g></g><g fill="#ffffff" fill-opacity="1"><g transform="translate(317.761831, 121.632157)"><g><path d="M 5.140625 -9.953125 L 2.25 -9.09375 L 4.546875 -1.34375 L 3 -0.890625 L 0.703125 -8.640625 L -2.171875 -7.78125 L -2.578125 -9.171875 L 4.734375 -11.34375 Z M 5.140625 -9.953125 "/></g></g></g><g fill="#ffffff" fill-opacity="1"><g transform="translate(326.390258, 119.016834)"><g><path d="M 9.5 0.640625 L 7.921875 0.53125 L 3.3125 -6.625 L 2.859375 0.1875 L 1.25 0.078125 L 1.890625 -9.4375 L 3.46875 -9.328125 L 8.09375 -2.15625 L 8.5625 -8.984375 L 10.140625 -8.875 Z M 9.5 0.640625 "/></g></g></g><g fill="#ffffff" fill-opacity="1"><g transform="translate(338.114534, 120.160225)"><g><path d="M 10.71875 -3.921875 L 6 -6.125 L 4.921875 -3.796875 L 9.140625 -1.828125 L 8.53125 -0.515625 L 4.3125 -2.484375 L 3.203125 -0.09375 L 8.0625 2.171875 L 7.453125 3.46875 L 1.140625 0.53125 L 5.171875 -8.109375 L 11.34375 -5.234375 Z M 10.71875 -3.921875 "/></g></g></g><g fill="#ffffff" fill-opacity="1"><g transform="translate(347.156473, 124.631629)"><g><path d="M 9.828125 -3.828125 C 10.710938 -2.960938 11.28125 -1.953125 11.53125 -0.796875 L 10.0625 -0.25 C 9.78125 -1.34375 9.320312 -2.203125 8.6875 -2.828125 C 8.332031 -3.160156 7.992188 -3.359375 7.671875 -3.421875 C 7.359375 -3.492188 7.09375 -3.414062 6.875 -3.1875 C 6.65625 -2.957031 6.5625 -2.675781 6.59375 -2.34375 C 6.625 -2.007812 6.738281 -1.671875 6.9375 -1.328125 C 7.132812 -0.992188 7.335938 -0.613281 7.546875 -0.1875 C 7.753906 0.238281 7.929688 0.648438 8.078125 1.046875 C 8.222656 1.441406 8.253906 1.859375 8.171875 2.296875 C 8.097656 2.734375 7.875 3.148438 7.5 3.546875 C 6.914062 4.140625 6.210938 4.378906 5.390625 4.265625 C 4.566406 4.160156 3.773438 3.738281 3.015625 3 C 2.492188 2.488281 2.082031 1.898438 1.78125 1.234375 C 1.476562 0.566406 1.304688 -0.109375 1.265625 -0.796875 L 2.734375 -1.296875 C 2.765625 -0.648438 2.90625 -0.0390625 3.15625 0.53125 C 3.40625 1.101562 3.710938 1.566406 4.078125 1.921875 C 4.472656 2.316406 4.851562 2.550781 5.21875 2.625 C 5.59375 2.707031 5.90625 2.617188 6.15625 2.359375 C 6.394531 2.117188 6.5 1.828125 6.46875 1.484375 C 6.4375 1.148438 6.320312 0.8125 6.125 0.46875 C 5.925781 0.132812 5.71875 -0.238281 5.5 -0.65625 C 5.28125 -1.070312 5.09375 -1.472656 4.9375 -1.859375 C 4.789062 -2.242188 4.753906 -2.660156 4.828125 -3.109375 C 4.910156 -3.554688 5.132812 -3.96875 5.5 -4.34375 C 6.0625 -4.925781 6.734375 -5.164062 7.515625 -5.0625 C 8.304688 -4.957031 9.078125 -4.546875 9.828125 -3.828125 Z M 9.828125 -3.828125 "/></g></g></g><g fill="#ffffff" fill-opacity="1"><g transform="translate(353.941065, 131.505166)"><g><path d="M 10.53125 -0.4375 C 11.09375 0.664062 11.304688 1.800781 11.171875 2.96875 L 9.609375 3.015625 C 9.691406 1.890625 9.535156 0.929688 9.140625 0.140625 C 8.910156 -0.296875 8.65625 -0.597656 8.375 -0.765625 C 8.09375 -0.929688 7.8125 -0.941406 7.53125 -0.796875 C 7.25 -0.660156 7.070312 -0.425781 7 -0.09375 C 6.925781 0.226562 6.925781 0.582031 7 0.96875 C 7.082031 1.351562 7.148438 1.78125 7.203125 2.25 C 7.265625 2.726562 7.300781 3.175781 7.3125 3.59375 C 7.332031 4.019531 7.234375 4.425781 7.015625 4.8125 C 6.796875 5.195312 6.441406 5.515625 5.953125 5.765625 C 5.210938 6.140625 4.46875 6.140625 3.71875 5.765625 C 2.976562 5.398438 2.363281 4.742188 1.875 3.796875 C 1.550781 3.148438 1.351562 2.460938 1.28125 1.734375 C 1.21875 1.003906 1.273438 0.316406 1.453125 -0.328125 L 3 -0.359375 C 2.820312 0.273438 2.757812 0.90625 2.8125 1.53125 C 2.863281 2.15625 3.003906 2.691406 3.234375 3.140625 C 3.484375 3.640625 3.769531 3.984375 4.09375 4.171875 C 4.425781 4.367188 4.753906 4.382812 5.078125 4.21875 C 5.367188 4.070312 5.554688 3.832031 5.640625 3.5 C 5.722656 3.175781 5.722656 2.820312 5.640625 2.4375 C 5.566406 2.050781 5.492188 1.625 5.421875 1.15625 C 5.347656 0.6875 5.300781 0.242188 5.28125 -0.171875 C 5.257812 -0.585938 5.351562 -0.992188 5.5625 -1.390625 C 5.78125 -1.785156 6.125 -2.097656 6.59375 -2.328125 C 7.3125 -2.703125 8.03125 -2.710938 8.75 -2.359375 C 9.46875 -2.015625 10.0625 -1.375 10.53125 -0.4375 Z M 10.53125 -0.4375 "/></g></g></g><g fill="#ffffff" fill-opacity="1"><g transform="translate(357.992628, 140.583486)"><g/></g></g><g fill="#ffffff" fill-opacity="1"><g transform="translate(359.111416, 145.581595)"><g><path d="M 1.390625 2.890625 L 1.28125 7.015625 L -0.171875 6.984375 L -0.03125 1.25 L 9.5 1.46875 L 9.46875 3.078125 Z M 1.390625 2.890625 "/></g></g></g><g fill="#ffffff" fill-opacity="1"><g transform="translate(359.037603, 154.015465)"><g><path d="M 6.921875 4.765625 C 7.421875 6.003906 7.410156 7.285156 6.890625 8.609375 C 6.378906 9.941406 5.519531 10.894531 4.3125 11.46875 C 3.101562 12.039062 1.863281 12.078125 0.59375 11.578125 C -0.675781 11.078125 -1.566406 10.207031 -2.078125 8.96875 C -2.585938 7.726562 -2.582031 6.441406 -2.0625 5.109375 C -1.550781 3.785156 -0.6875 2.835938 0.53125 2.265625 C 1.75 1.703125 2.992188 1.671875 4.265625 2.171875 C 5.535156 2.671875 6.421875 3.535156 6.921875 4.765625 Z M 5.546875 8.109375 C 5.890625 7.222656 5.878906 6.347656 5.515625 5.484375 C 5.160156 4.628906 4.539062 4.03125 3.65625 3.6875 C 2.78125 3.34375 1.914062 3.363281 1.0625 3.75 C 0.207031 4.144531 -0.382812 4.773438 -0.71875 5.640625 C -1.0625 6.515625 -1.050781 7.378906 -0.6875 8.234375 C -0.320312 9.097656 0.296875 9.703125 1.171875 10.046875 C 2.054688 10.390625 2.921875 10.367188 3.765625 9.984375 C 4.617188 9.597656 5.210938 8.972656 5.546875 8.109375 Z M 5.546875 8.109375 "/></g></g></g><g fill="#ffffff" fill-opacity="1"><g transform="translate(354.443358, 165.050714)"><g><path d="M -1.984375 8.859375 L -2.953125 9.875 L -5.5 7.4375 C -5.4375 6.820312 -5.253906 6.191406 -4.953125 5.546875 C -4.648438 4.910156 -4.273438 4.363281 -3.828125 3.90625 C -2.859375 2.882812 -1.703125 2.347656 -0.359375 2.296875 C 0.972656 2.242188 2.128906 2.691406 3.109375 3.640625 C 4.097656 4.585938 4.582031 5.726562 4.5625 7.0625 C 4.550781 8.394531 4.050781 9.582031 3.0625 10.625 C 2.59375 11.113281 2.046875 11.507812 1.421875 11.8125 C 0.804688 12.113281 0.179688 12.300781 -0.453125 12.375 L -0.65625 10.875 C 0.40625 10.8125 1.300781 10.398438 2.03125 9.640625 C 2.695312 8.941406 3.023438 8.125 3.015625 7.1875 C 3.003906 6.25 2.660156 5.457031 1.984375 4.8125 C 1.296875 4.144531 0.484375 3.832031 -0.453125 3.875 C -1.390625 3.914062 -2.191406 4.285156 -2.859375 4.984375 C -3.367188 5.515625 -3.71875 6.191406 -3.90625 7.015625 Z M -1.984375 8.859375 "/></g></g></g></svg>